<?xml version="1.0" encoding="UTF-8" standalone="no"?>
<!-- Created with Inkscape (http://www.inkscape.org/) -->
<svg xmlns:inkscape="http://www.inkscape.org/namespaces/inkscape" xmlns:rdf="http://www.w3.org/1999/02/22-rdf-syntax-ns#" xmlns="http://www.w3.org/2000/svg" xmlns:xlink="http://www.w3.org/1999/xlink" xmlns:ns1="http://sozi.baierouge.fr" xmlns:cc="http://creativecommons.org/ns#" xmlns:sodipodi="http://sodipodi.sourceforge.net/DTD/sodipodi-0.dtd" xmlns:dc="http://purl.org/dc/elements/1.1/" id="svg2" xml:space="preserve" viewBox="0 0 80.9 42.525" version="1.1" inkscape:version="0.91 r13725">
  <defs id="defs6">
    <clipPath id="clipPath30">
      <path id="path32" d="m46 8.641c-2.668-0.988-5.879-1.48-9.641-1.48-3.757 0-6.972 0.492-9.64 1.48-2.664 0.985-4 2.172-4 3.559s1.336 2.558 4 3.519c2.668 0.989 5.883 1.481 9.64 1.481 3.762 0 6.973-0.492 9.641-1.481 2.668-0.961 4-2.132 4-3.519s-1.332-2.574-4-3.559z" inkscape:connector-curvature="0"/>
    </clipPath>
    <clipPath id="clipPath38">
      <path id="path40" d="m27.35-25.836h35v33.619h-35v-33.619z" inkscape:connector-curvature="0"/>
    </clipPath>
    <radialGradient id="radialGradient42" gradientUnits="userSpaceOnUse" cy="-8.0498" cx="45.3" r="13.6">
      <stop id="stop44" style="stop-color:#ffffff;stop-opacity:.51369" offset="0"/>
      <stop id="stop46" style="stop-color:#ffffff;stop-opacity:0" offset="1"/>
    </radialGradient>
    <mask id="mask48">
      <g id="g50">
        <g id="g52" clip-path="url(#clipPath38)">
          <path id="path54" style="fill:url(#radialGradient42)" d="m27.35-25.836h35v33.619h-35v-33.619z" inkscape:connector-curvature="0"/>
        </g>
      </g>
    </mask>
    <radialGradient id="radialGradient58" gradientUnits="userSpaceOnUse" cy="-8.0498" cx="45.3" r="13.6">
      <stop id="stop60" style="stop-color:#000000" offset="0"/>
      <stop id="stop62" style="stop-color:#000000" offset="1"/>
    </radialGradient>
  </defs>
  <g id="g10" transform="matrix(1.25 0 0 -1.25 0 42.525)">
    <g id="g12">
      <path id="path14" style="fill-rule:evenodd;fill:#593d22" d="m62.281 12.559c-0.562-0.105-1.547-0.172-2.961-0.199-1.199-0.055-2.199-0.199-3-0.441v-0.239l-0.039-0.199c-0.082-0.266-0.269-0.668-0.562-1.199-0.184-0.082-0.481-0.11-0.879-0.082-0.266-0.426-0.426-0.668-0.481-0.719-0.214 0-0.597-0.039-1.16-0.121-0.531-0.105-0.894-0.148-1.078-0.121 0.238-0.133 0.359-0.277 0.359-0.438-0.027-0.242-0.027-0.375 0-0.402-0.214-0.078-0.507-0.105-0.878-0.078-0.055-0.055-0.137-0.188-0.243-0.402-0.078-0.133-0.187-0.239-0.32-0.321-0.773-0.051-2.133-0.371-4.078-0.957-1.734-0.535-3.055-0.761-3.961-0.679 0.801-0.536 1.055-1.11 0.762-1.723l-0.524-0.078c-0.023-0.028-0.093-0.149-0.199-0.36-0.078-0.136-0.184-0.242-0.32-0.32-5.25-0.266-10.531 0.039-15.84 0.918-0.719 0.133-1.813 0.188-3.277 0.16-1.575-0.027-2.696 0-3.364 0.082-0.851 0.133-1.437 0.399-1.758 0.801-0.375 0.477 0.067 0.891 1.321 1.238l-1.199 0.039 0.597 0.442c-0.719 0.027-1.758-0.106-3.121-0.403-1.547-0.343-2.637-0.531-3.277-0.558-0.453-0.028-1.414 0.082-2.879 0.32-1.203 0.215-2.11 0.215-2.723 0-0.879 0.238-1.332 0.574-1.359 1-0.028 0.348 0.254 0.828 0.84 1.442h0.039l-0.039-0.043c0.375 0.214 0.734 0.347 1.082 0.402 0.398 0 0.703 0.012 0.918 0.039 0.265 0.16 0.48 0.266 0.64 0.32l1 0.399c0.508 0.242 0.84 0.386 1 0.441l1.442 0.36c0.105 0.32 0.492 0.48 1.16 0.48 0.773-0.055 1.238-0.066 1.398-0.039 0.078 0.187 0.266 0.277 0.559 0.277 0.348 0 0.574 0.028 0.68 0.082 0.214 0.133 0.32 0.282 0.32 0.442s-0.106 0.254-0.32 0.277c0.16 0.16 0.269 0.281 0.32 0.359 0.109 0.161 0.148 0.297 0.121 0.403 0.375 0.187 0.719 0.547 1.039 1.078-3.144-1.652-5.199-2.68-6.16-3.078 3.469 1.758 6.082 3.066 7.84 3.918 0.082 0.054 0.16 0.093 0.242 0.121 0.719 0 1.144 0.176 1.277 0.519 0.242 0.055 0.574 0.082 1 0.082l-0.277-0.281c0.184-0.055 0.48-0.012 0.879 0.121 0.535 0.211 0.855 0.332 0.961 0.36h1.16c0.266-0.028 0.465-0.039 0.598-0.039 0.269 0.023 0.441 0.105 0.519 0.238 0.16 0.242 0.067 0.375-0.277 0.398-0.16 0-0.426-0.011-0.801-0.039l-1.398-0.078-0.364-0.199 0.043 0.238c1.625 0.508 3.117 0.707 4.481 0.602l0.238 0.078c0.16-0.188 0.785-0.067 1.879 0.359 0.988 0.215 1.734 0.387 2.242 0.52h0.078c0.934-0.024 1.879-0.039 2.84-0.039l-1.598-0.039c-0.906 0-1.789-0.149-2.64-0.442-0.188-0.078-0.602-0.226-1.242-0.437-0.586-0.215-0.973-0.43-1.161-0.641l0.043-0.039c-0.027 0-0.054-0.016-0.082-0.043 0.243-0.133 0.653-0.184 1.243-0.16 0.664 0.055 1.132 0.082 1.398 0.082h4.48c3.012 0 4.934-0.055 5.758-0.16 3.176-0.293 5.551-0.52 7.121-0.68 2.829-0.266 5.055-0.68 6.68-1.242 0.43-0.238 0.816-0.438 1.16-0.598 0.055-0.027 0.121-0.054 0.199-0.082 0.723-0.347 1.204-0.426 1.442-0.238 0.027 0 0.039 0.012 0.039 0.039 0.082 0.055 0.148 0.094 0.199 0.121 0.137 0.184 0.137 0.371 0 0.559-0.078 0.132-0.223 0.265-0.437 0.402-0.403 0.238-0.934 0.465-1.602 0.68l-1.117 0.359c-0.75 0.211-1.43 0.414-2.043 0.598l-0.957 0.281c-1.094 0.32-1.856 0.535-2.281 0.641-2.055 0.48-3.973 0.734-5.762 0.757-0.852 0-2.254 0.055-4.199 0.161-1.352 0.07-2.481 0.113-3.379 0.121 1.773 0.035 3.605 0.117 5.5 0.242 1.066 0.051 2.371-0.043 3.918-0.281 0.269-0.028 1.148-0.094 2.64-0.2 1.094-0.054 1.922-0.187 2.481-0.402 0.828-0.504 1.535-0.801 2.121-0.879 0.398 0.027 0.68 0.027 0.84 0l1.879-0.238c0.293-0.055 0.707-0.281 1.242-0.684 0.453-0.343 0.933-0.492 1.437-0.437l0.243 0.32c0.691-0.055 1.253-0.082 1.679-0.082 1.145-0.32 2.012-0.625 2.598-0.918 0.32-0.16 0.601-0.336 0.84-0.519 0.109-0.082 0.215-0.161 0.32-0.243-0.105 0.055-0.199 0.121-0.277 0.2l-0.043 0.043-0.239 0.16c-0.402-0.696-0.8-1.215-1.199-1.563zm-30.082 5.52-0.16 0.043 0.32 0.039-0.16-0.082zm27.961-3.278c-0.398-0.16-0.558-0.386-0.48-0.679 0.082-0.27 0.281-0.403 0.601-0.403 0.344 0.028 0.574 0.149 0.68 0.36 0.105 0.215-0.039 0.32-0.441 0.32l-0.36 0.402zm-10.601-0.16c-0.426 0-0.786-0.043-1.079-0.121-0.16-0.265 0.36-0.426 1.559-0.48 1.176-0.051 1.922 0 2.242 0.16l-1.679 0.398c-0.215 0-0.563 0.016-1.043 0.043zm3-1.519c0.32-0.188 0.586-0.297 0.8-0.321 0.907-0.16 1.321 0.012 1.243 0.52h-0.364c-0.238 0.211-0.703 0.332-1.398 0.359-0.266 0-0.828-0.015-1.68-0.039-0.133-0.187-0.199-0.336-0.199-0.441 0.16-0.055 0.414-0.078 0.758-0.078 0.426 0.023 0.707 0.023 0.84 0zm-34.438-1c0.481-0.055 1.094-0.067 1.84-0.043 1.758 0.054 2.691 0.082 2.801 0.082 2.316-0.133 4.426-0.199 6.316-0.199 1.281 0 5.016-0.055 11.203-0.161l1.68-0.043c1.172-0.027 2.57-0.238 4.199-0.636 0.078-0.028 0.16-0.055 0.238-0.082 0.668-0.215 1.176-0.371 1.524-0.481 0.691-0.183 1.371-0.226 2.039-0.117 0.984 0.156 1.707 0.438 2.16 0.84 0.211 0.16 0.32 0.305 0.32 0.437v0.063c-0.019 0.133-0.113 0.258-0.281 0.379-0.398 0.293-1.082 0.531-2.039 0.719-0.535 0.082-1.336 0.199-2.402 0.359-2.344 0.453-4 0.723-4.957 0.801-2.215 0.187-4.75 0.347-7.602 0.48-3.254 0.16-5.812 0.227-7.68 0.199-2.558 0-4.265-0.078-5.121-0.238-1.492-0.266-3.226-0.973-5.199-2.121l0.16-0.039c0.106-0.055 0.239-0.094 0.399-0.121 0.082-0.028 0.176-0.039 0.281-0.039 0.027 0 0.066-0.016 0.121-0.039zm30.84-2.321c0.184-0.109 0.453-0.136 0.801-0.082l0.277 0.321 0.039 0.082c-0.023 0-0.223-0.016-0.598-0.043-0.242-0.024-0.414-0.117-0.519-0.278zm2.16 0.641c-0.562-0.027-0.801-0.187-0.723-0.48 0.082-0.321 0.414-0.403 1-0.243 0.59 0.133 0.883 0.309 0.883 0.52-0.027 0.242-0.308 0.336-0.84 0.281l-0.32-0.078zm-6.359 4.637c-0.082 0.082-0.215 0.109-0.403 0.082l0.121 0.078c-0.105 0-0.386 0.016-0.839 0.043-0.403-0.027-0.614-0.137-0.641-0.32 0-0.137 0.238-0.215 0.719-0.243 0.402 0 0.722 0.016 0.961 0.039 0.132 0.161 0.16 0.27 0.082 0.321zm3.636-0.039c-0.425 0-0.73-0.039-0.918-0.121 0.375-0.133 0.758-0.145 1.161-0.039 0.054 0.082 0.011 0.16-0.121 0.242l-0.122-0.082zm-3.32-14c-0.344-0.16-0.719-0.305-1.117-0.442 0.371 0.137 0.734 0.282 1.078 0.442h0.039zm0.363 3.84 0.118-0.2-0.36 0.239 0.242-0.039zm-3.402 2.101c0.418 0.039 0.918 0.16 1.5 0.359 0.059 0.02 0.113 0.043 0.16 0.059 0.051 0.012 0.098 0.023 0.141 0.043l0.558 0.199c0.723 0.348 1 0.653 0.84 0.918-0.05 0.082-0.117 0.16-0.199 0.242l-0.199 0.079c-0.348 0.187-0.879 0.359-1.602 0.519-0.398 0.109-0.984 0.242-1.758 0.402-1.867 0.504-3.746 0.758-5.64 0.758-4.774 0-11.695 0.082-20.762 0.242l-1.078 0.039c-0.988-0.242-1.973-0.625-2.961-1.16l-0.461-0.32c-0.266-0.219-0.312-0.379-0.137-0.48 0.106-0.055 0.321-0.094 0.637-0.122 0.188-0.027 0.402-0.039 0.641-0.039 0.402-0.027 0.883-0.05 1.441-0.078h4.84c2.375 0.051 4.145 0.039 5.32-0.043 1.707-0.133 5.227-0.25 10.559-0.359 1.094-0.024 2.402-0.199 3.922-0.52 0.215-0.043 0.422-0.082 0.621-0.121 0.172-0.043 0.336-0.082 0.5-0.117l0.957-0.199c0.773-0.137 1.32-0.227 1.641-0.281 0.054 0 0.121-0.016 0.199-0.039h0.043l0.277 0.019zm3.602 3.82-0.243-0.082c-0.343 0.028-0.703-0.039-1.078-0.199-0.105-0.348 0.2-0.558 0.918-0.64 0.297-0.028 0.867-0.012 1.723 0.039 0.211 0.296 0.238 0.535 0.078 0.722-0.105 0.106-0.32 0.239-0.641 0.399l-0.757-0.239zm-2.481 0.321c-0.215-0.188 0.078-0.282 0.879-0.282 0.773 0 1.293 0.055 1.563 0.161l-0.641 0.281c-0.106 0-0.402 0.012-0.883 0.039-0.453 0.027-0.758-0.039-0.918-0.199zm-5.961 4.16c-0.371-0.055-0.652-0.149-0.84-0.281 0.133-0.082 0.426-0.094 0.879-0.039l0.203 0.199-0.242 0.121zm1.481 0.16c0.48-0.082 0.894-0.121 1.242-0.121 0.664 0 1.012 0.172 1.039 0.519-0.188 0.055-0.387 0.055-0.602 0l-0.519-0.082c-0.641 0.082-1.028-0.023-1.16-0.316zm-4.68 0.398c-0.238-0.027-0.398-0.082-0.48-0.16-0.079-0.105-0.051-0.199 0.082-0.281 0.16-0.078 0.386-0.094 0.679-0.039 0.321 0.055 0.52 0.16 0.598 0.32-0.133 0.106-0.305 0.133-0.52 0.078l-0.359 0.082zm2.441-0.281c0-0.238 0.227-0.265 0.68-0.078-0.133 0.106-0.48 0.16-1.043 0.16l0.363-0.082zm-4 0.563c-0.242 0.105-0.668 0.133-1.281 0.078-0.586-0.028-1.039-0.106-1.359-0.238 0.078-0.215 0.558-0.336 1.437-0.364 0.883-0.023 1.414 0.055 1.602 0.242l-0.399 0.282zm5.84-9.922c-0.082-0.078-0.176-0.145-0.281-0.199 0.508-0.133 0.879-0.016 1.121 0.359 0.266 0.348 0.106 0.52-0.48 0.52l-0.039-0.122v-0.199c-0.028-0.027-0.055-0.051-0.082-0.078-0.055-0.082-0.122-0.16-0.2-0.242-0.027 0-0.054-0.012-0.082-0.039h0.043zm-0.801 0.199c0.293-0.105 0.532-0.023 0.719 0.242l-0.078 0.321-0.883-0.082c-0.16-0.239-0.078-0.399 0.242-0.481zm-2.242-0.277c-0.316-0.11-0.449-0.254-0.398-0.442 0.055-0.133 0.281-0.187 0.68-0.16 0.375 0.055 0.613 0.172 0.718 0.36l-0.316 0.32c-0.188 0.027-0.414 0-0.684-0.078zm-1.597 1.078c-0.161-0.32-0.282-0.535-0.36-0.641h-0.32c0.051-0.183 0.293-0.304 0.719-0.359 0.48-0.055 0.828 0.039 1.039 0.281 0.242 0.238 0.269 0.453 0.082 0.641-0.188 0.16-0.414 0.238-0.68 0.238-0.215 0.055-0.441 0.055-0.68 0 0.051-0.055 0.118-0.105 0.2-0.16zm-0.52 0.242c-0.109 0-0.469 0.039-1.082 0.117-0.559 0-0.894-0.144-1-0.437-0.078-0.188 0.016-0.309 0.281-0.364 0.375-0.05 0.614-0.078 0.719-0.078 0.75-0.082 1.188 0.106 1.32 0.559l-0.238 0.203zm-3.402 8.316-0.598 0.204c-0.109 0-0.426 0.011-0.961 0.039-0.48 0-0.801-0.082-0.961-0.243-0.133-0.132-0.144-0.238-0.039-0.316 0.028-0.027 0.16-0.066 0.399-0.121 0.507-0.082 0.882-0.121 1.121-0.121 0.453 0.055 0.8 0.242 1.039 0.558zm-3.078 0.442h-0.161c-0.132-0.078-0.199-0.188-0.199-0.32 0.239-0.079 0.504-0.106 0.797-0.079 0.137 0.184 0.149 0.305 0.043 0.36-0.109 0.078-0.266 0.094-0.48 0.039zm-1.762-4.758h-0.68l0.082 0.117c-0.242-0.211-0.215-0.332 0.078-0.359 0.293-0.028 0.469 0.055 0.52 0.242zm-3.481 3.477c-0.132 0-0.332-0.012-0.597-0.039l-1.199-0.2c-0.536-0.187-0.817-0.386-0.84-0.601 0.664-0.106 1.636 0.093 2.918 0.601 0.027 0.16-0.067 0.239-0.282 0.239zm0.641-0.161c0.266-0.027 0.453-0.039 0.563-0.039 0.238 0.028 0.371 0.121 0.398 0.282l-0.199 0.039-0.082-0.078h-0.641l-0.039-0.204zm-3.801-2.796c-0.293-0.055-0.504-0.149-0.636-0.282 0.238-0.105 0.543-0.16 0.918-0.16 0.425 0 0.718 0.078 0.878 0.238l-1.16 0.204zm3.84-0.883c0.723 0 1.227 0.093 1.524 0.281l-0.883 0.281c-0.133 0-0.531 0.012-1.199 0.039-0.614-0.027-0.946-0.187-1-0.48 0.64-0.055 1.16-0.094 1.558-0.121zm2-3.199-0.277 0.199c-0.641 0-1.067-0.117-1.281-0.36 0.8-0.078 1.32-0.027 1.558 0.161zm-7.797-0.079c0.133-0.082 0.293-0.109 0.481-0.082 0.183 0.028 0.304 0.106 0.359 0.243l-0.199 0.039-0.043 0.039c-0.238 0.054-0.438-0.028-0.598-0.239zm11.481-1.679c-0.27-0.055-0.469-0.149-0.602-0.282 0.32-0.214 0.918-0.265 1.801-0.16 0.961 0.106 1.492 0.387 1.598 0.84h-0.118v0.078l-0.363-0.117-1.156-0.242h-1.242c0-0.024 0.027-0.067 0.082-0.117zm2.039 0.957-0.442-0.078c-0.16 0-0.425 0.011-0.8 0.039-0.348-0.028-0.598-0.133-0.758-0.321 0.504-0.05 0.906-0.066 1.199-0.039 0.16 0 0.32 0.028 0.48 0.078 0.133 0.161 0.239 0.27 0.321 0.321zm-5.16 0.922c-0.215-0.266-0.629-0.403-1.243-0.403 0.082-0.238 0.403-0.343 0.961-0.316 0.614 0.051 0.961 0.265 1.039 0.637l-0.757 0.082zm-17.403 1.238c0.242 0.137 0.481 0.254 0.723 0.359 0.105 0.055 0.266 0.121 0.48 0.203-0.48-0.214-0.882-0.402-1.203-0.562zm1.242-0.559c0.426-0.105 0.774-0.16 1.04-0.16 0.535-0.027 0.761 0.106 0.679 0.399h-1.16c-0.133 0.054-0.293 0.054-0.48 0-0.051-0.051-0.079-0.133-0.079-0.239zm-6.039-2.48c0.184 0.16 0.399 0.32 0.637 0.48 0.215 0.133 0.414 0.254 0.602 0.36l-1.239-0.84zm11.481 1.762c-0.508 0-0.828-0.055-0.961-0.161-0.242-0.214-0.106-0.375 0.398-0.48 1.762 0.027 2.586 0.187 2.481 0.48l-0.918 0.079c-0.11 0-0.442 0.027-1 0.082zm-4.203 0.199c-0.078 0-0.172 0.039-0.278 0.121l-0.32-0.121c-0.562 0.105-0.961 0.011-1.199-0.281 0.156-0.188 0.476-0.266 0.957-0.239 0.535 0.024 0.816 0.199 0.84 0.52zm0.043-0.801c0.238 0 0.371 0.094 0.398 0.281l-0.039 0.52c-0.16-0.348-0.359-0.52-0.601-0.52-0.079-0.187 0-0.281 0.242-0.281z" inkscape:connector-curvature="0"/>
      <path id="path16" style="fill-rule:evenodd;fill:#3b291a" d="m45.441 4.88c0.266-0.028 0.52-0.094 0.758-0.2 0.293-0.16 0.508-0.265 0.641-0.32 0.426-0.16 0.84-0.215 1.238-0.16 0.215 0.398 0.574 0.734 1.082 1 0.215 0.105 1.094 0.375 2.641 0.801l0.48 0.718 0.481-0.039c1.25 0 2.316 0.414 3.199 1.239 0.664 0.64 0.906 1.269 0.719 1.882-0.055 0.184-0.215 0.414-0.481 0.68l0.52-0.082c1.121-0.32 1.535-1 1.242-2.039h0.437l0.282 0.039c0.187 0.055 0.785 0.348 1.8 0.883 0.426 0.265 0.879 0.41 1.36 0.437l0.558 0.762c0.27 0.453 0.43 0.813 0.481 1.078l-0.68 0.039c-0.773 0.137-1.199 0.203-1.277 0.203 0.558 0.211 1.012 0.465 1.359 0.758 0.399 0.348 0.797 0.867 1.199 1.563l0.239-0.16 0.043-0.043c0.078-0.079 0.172-0.145 0.277-0.2 0.453-0.425 0.68-0.894 0.68-1.398 0-0.32-0.094-0.652-0.278-1-0.082-0.16-0.187-0.32-0.32-0.481l-0.519-0.64c-0.215-0.215-0.442-0.414-0.68-0.602-0.856-0.691-2.082-1.316-3.684-1.879-0.133-0.05-0.265-0.105-0.398-0.16l-0.68-0.238c-0.828-0.266-1.785-0.574-2.879-0.922-0.48-0.184-1.402-0.48-2.761-0.879-1.227-0.375-2.122-0.68-2.68-0.922-0.774-0.343-1.613-0.945-2.52-1.797-0.933-0.906-1.679-1.496-2.242-1.761h-0.039c-0.344-0.16-0.707-0.305-1.078-0.442l-4.242-0.597c-0.504 0.027-1.039 0.054-1.598 0.078-1.601 0.082-3.707 0.32-6.32 0.722-2.215 0.211-5.254 0.321-9.121 0.321-4.641 0-7.692 0.039-9.16 0.117-1.786 0.082-4.067 0.359-6.84 0.84-3.492 0.586-5.719 0.933-6.68 1.043 0.027 0.16 0.266 0.547 0.719 1.16 0.562-0.774 2.148-1.067 4.761-0.883 2.852 0.375 4.641 0.574 5.36 0.602 1.199 0.027 2.828-0.2 4.879-0.68 2.242-0.563 3.855-0.867 4.84-0.922 0.535-0.023 2.375-0.066 5.519-0.117 2.27-0.055 4.027-0.203 5.281-0.442 1.282-0.375 2.227-0.64 2.84-0.8 1.039-0.266 2.094-0.371 3.16-0.321 0.801 0.028 1.786 0.188 2.961 0.481 1.2 0.265 2.215 0.426 3.039 0.48 0.375 0.453 0.68 0.735 0.922 0.84 0.293 0.133 0.664 0.188 1.117 0.16 0.43 0.481 0.629 0.895 0.602 1.239 0 0.296-0.145 0.546-0.441 0.761l-0.118 0.2z" inkscape:connector-curvature="0"/>
      <path id="path18" style="fill-rule:evenodd;fill:#6a4a2b" d="m28 17.2 1.961 0.68 2.078 0.242 0.16-0.043 0.16 0.082 0.36 0.039c1.519 0.133 3.336 0.199 5.441 0.199 2.399-0.051 4.227-0.066 5.481-0.039 2.64 0.027 5.265-0.238 7.879-0.801 3.015-0.746 5.347-1.32 7-1.719 0.375-0.082 0.734-0.171 1.082-0.281l0.718-0.16h-0.039c-0.426 0-0.988 0.027-1.679 0.082l-0.243-0.32c-0.504-0.055-0.984 0.094-1.437 0.437-0.535 0.403-0.949 0.629-1.242 0.684l-1.879 0.238c-0.16 0.027-0.442 0.027-0.84 0-0.586 0.078-1.293 0.375-2.121 0.879-0.559 0.215-1.387 0.348-2.481 0.402-1.492 0.106-2.371 0.172-2.64 0.2-1.547 0.238-2.852 0.332-3.918 0.281-1.895-0.125-3.727-0.207-5.5-0.242h-1.262c-0.961 0-1.906 0.015-2.84 0.039h-0.078c-0.508-0.133-1.254-0.305-2.242-0.52-1.094-0.426-1.719-0.547-1.879-0.359zm-8.039-2h-0.082c1.336 0.613 2.469 1.066 3.402 1.359v-0.039l-0.043-0.238 0.364 0.199 1.398 0.078c0.375 0.028 0.641 0.039 0.801 0.039 0.344-0.023 0.437-0.156 0.277-0.398-0.078-0.133-0.25-0.215-0.519-0.238-0.133 0-0.332 0.011-0.598 0.039h-1.16c-0.106-0.028-0.426-0.149-0.961-0.36-0.399-0.133-0.695-0.176-0.879-0.121l0.277 0.281c-0.426 0-0.758-0.027-1-0.082-0.133-0.343-0.558-0.519-1.277-0.519zm-13.242-6.238v0.039c0.136 0.078 0.308 0.16 0.519 0.238 0.321 0.16 0.723 0.348 1.203 0.562l0.879 0.321c0.641 0.265 1.492 0.613 2.559 1.039 0.961 0.398 3.016 1.426 6.16 3.078-0.32-0.531-0.664-0.891-1.039-1.078 0.027-0.106-0.012-0.242-0.121-0.403-0.051-0.078-0.16-0.199-0.32-0.359 0.214-0.023 0.32-0.117 0.32-0.277s-0.106-0.309-0.32-0.442c-0.106-0.054-0.332-0.082-0.68-0.082-0.293 0-0.481-0.09-0.559-0.277-0.16-0.027-0.625-0.016-1.398 0.039-0.668 0-1.055-0.16-1.16-0.48l-1.442-0.36c-0.16-0.055-0.492-0.199-1-0.441l-1-0.399c-0.16-0.054-0.375-0.16-0.64-0.32-0.215-0.027-0.52-0.039-0.918-0.039-0.348-0.055-0.707-0.188-1.082-0.402l0.039 0.043zm42.84 5.679c0.48-0.027 0.828-0.043 1.043-0.043l1.679-0.398c-0.32-0.16-1.066-0.215-2.242-0.16-1.199 0.054-1.719 0.215-1.559 0.48 0.293 0.078 0.653 0.121 1.079 0.121zm-0.598-4.84c0.105 0.161 0.277 0.254 0.519 0.278 0.375 0.027 0.575 0.043 0.598 0.043l-0.039-0.082-0.277-0.321c-0.348-0.054-0.617-0.027-0.801 0.082zm-0.563 5.239 0.122 0.082c0.132-0.082 0.175-0.16 0.121-0.242-0.403-0.106-0.786-0.094-1.161 0.039 0.188 0.082 0.493 0.121 0.918 0.121zm-3.636 0.039c0.078-0.051 0.05-0.16-0.082-0.321-0.239-0.027-0.559-0.039-0.961-0.039-0.481 0.028-0.719 0.106-0.719 0.243 0.027 0.183 0.238 0.293 0.641 0.32 0.453-0.027 0.734-0.043 0.839-0.043l-0.121-0.078c0.188 0.027 0.321 0 0.403-0.082zm-1.602-3.957c0.16 0.16 0.465 0.226 0.918 0.199 0.481-0.027 0.777-0.039 0.883-0.039l0.641-0.281c-0.27-0.106-0.79-0.161-1.563-0.161-0.801 0-1.094 0.094-0.879 0.282zm-4.48 4.32c0.132 0.293 0.519 0.398 1.16 0.316l0.519 0.082c0.215 0.055 0.414 0.055 0.602 0-0.027-0.347-0.375-0.519-1.039-0.519-0.348 0-0.762 0.039-1.242 0.121zm-1.481-0.16 0.242-0.121-0.203-0.199c-0.449-0.055-0.746-0.043-0.879 0.039 0.188 0.132 0.469 0.226 0.84 0.281zm-4.758 0.84 0.399-0.282c-0.188-0.187-0.719-0.265-1.602-0.242-0.879 0.028-1.359 0.149-1.437 0.364 0.32 0.132 0.773 0.21 1.359 0.238 0.613 0.055 1.039 0.027 1.281-0.078zm4-0.563-0.363 0.082c0.563 0 0.91-0.054 1.043-0.16-0.453-0.187-0.68-0.16-0.68 0.078zm-2.441 0.281 0.359-0.082c0.215 0.055 0.387 0.028 0.52-0.078-0.078-0.16-0.277-0.265-0.598-0.32-0.293-0.055-0.519-0.039-0.679 0.039-0.137 0.082-0.161 0.176-0.082 0.281 0.082 0.078 0.242 0.133 0.48 0.16zm1.238-9.718c0.27 0.078 0.496 0.105 0.684 0.078l0.316-0.32c-0.105-0.188-0.343-0.305-0.718-0.36-0.399-0.027-0.625 0.027-0.68 0.16-0.055 0.188 0.082 0.332 0.398 0.442zm2.242 0.277c-0.32 0.082-0.402 0.242-0.242 0.481l0.883 0.082 0.078-0.321c-0.187-0.265-0.426-0.347-0.719-0.242zm-4.359 1.043 0.238-0.203c-0.132-0.453-0.574-0.641-1.32-0.559-0.105 0-0.344 0.028-0.719 0.078-0.265 0.055-0.359 0.176-0.281 0.364 0.106 0.293 0.441 0.437 1 0.437 0.613-0.078 0.973-0.117 1.082-0.117zm-3.402 8.316c-0.239-0.316-0.586-0.503-1.039-0.558-0.239 0-0.614 0.039-1.121 0.121-0.239 0.055-0.371 0.094-0.399 0.121-0.105 0.078-0.094 0.184 0.039 0.316 0.16 0.161 0.481 0.243 0.961 0.243 0.535-0.028 0.852-0.039 0.961-0.039l0.598-0.204zm-4.84-4.316c-0.051-0.187-0.227-0.27-0.52-0.242-0.293 0.027-0.32 0.148-0.078 0.359l-0.082-0.117h0.68zm1.762 4.758c0.214 0.055 0.371 0.039 0.48-0.039 0.106-0.055 0.094-0.176-0.043-0.36-0.293-0.027-0.558 0-0.797 0.079 0 0.132 0.067 0.242 0.199 0.32h0.161zm-4.602-1.442 0.039 0.204h0.641l0.082 0.078 0.199-0.039c-0.027-0.161-0.16-0.254-0.398-0.282-0.11 0-0.297 0.016-0.563 0.039zm-0.641 0.161c0.215 0 0.309-0.079 0.282-0.239-1.282-0.508-2.254-0.707-2.918-0.601 0.023 0.215 0.304 0.414 0.84 0.601l1.199 0.2c0.265 0.027 0.465 0.039 0.597 0.039zm-5.117-7.118c0.16 0.211 0.36 0.293 0.598 0.239l0.043-0.039 0.199-0.039c-0.055-0.137-0.176-0.215-0.359-0.243-0.188-0.027-0.348 0-0.481 0.082zm7.797 0.079c-0.238-0.188-0.758-0.239-1.558-0.161 0.214 0.243 0.64 0.36 1.281 0.36l0.277-0.199zm-2 3.199c-0.398 0.027-0.918 0.066-1.558 0.121 0.054 0.293 0.386 0.453 1 0.48 0.668-0.027 1.066-0.039 1.199-0.039l0.883-0.281c-0.297-0.188-0.801-0.281-1.524-0.281zm7.723-4c-0.082-0.051-0.188-0.16-0.321-0.321-0.16-0.05-0.32-0.078-0.48-0.078-0.293-0.027-0.695-0.015-1.199 0.039 0.16 0.188 0.414 0.293 0.758 0.321 0.375-0.028 0.64-0.039 0.8-0.039l0.442 0.078zm-21.321 1.601c0 0.106 0.028 0.188 0.079 0.239 0.187 0.054 0.347 0.054 0.48 0h1.16c0.082-0.293-0.144-0.426-0.679-0.399-0.266 0-0.614 0.055-1.04 0.16zm5.442-0.718c0.558-0.055 0.89-0.082 1-0.082l0.918-0.079c0.105-0.293-0.719-0.453-2.481-0.48-0.504 0.105-0.64 0.266-0.398 0.48 0.133 0.106 0.453 0.161 0.961 0.161zm-4.16-0.602c-0.242 0-0.321 0.094-0.242 0.281 0.242 0 0.441 0.172 0.601 0.52l0.039-0.52c-0.027-0.187-0.16-0.281-0.398-0.281z" inkscape:connector-curvature="0"/>
      <path id="path20" style="fill-rule:evenodd;fill:#6a4929" d="m58.078 14.04c0.082-0.133 0.094-0.266 0.043-0.399 0-0.054-0.016-0.109-0.043-0.16-0.051-0.027-0.117-0.066-0.199-0.121 0-0.027-0.012-0.039-0.039-0.039-0.238-0.188-0.719-0.106-1.442 0.238-0.078 0.028-0.144 0.055-0.199 0.082-0.265 0.133-0.547 0.278-0.84 0.438l0.563-0.078c0.371-0.082 0.637-0.133 0.797-0.161 0.347-0.054 0.656-0.066 0.922-0.039l0.039 0.118c0.054 0.136 0.039 0.296-0.039 0.48v0.043c0.214-0.137 0.359-0.27 0.437-0.402zm-17.797-2.239-1.043 0.039c2.883 0.106 4.789 0.079 5.723-0.082 0.961-0.105 1.641-0.226 2.039-0.359 0.746-0.344 1.32-0.586 1.719-0.719 0.269-0.105 0.75-0.082 1.441 0.078 0.719 0.188 1.281 0.414 1.68 0.684 0.215 0.156 0.348 0.293 0.398 0.398-0.023 0.133-0.039 0.227-0.039 0.282 0.141-0.117 0.223-0.231 0.242-0.34v-0.063c0-0.132-0.109-0.277-0.32-0.437-0.453-0.402-1.176-0.684-2.16-0.84-0.668-0.109-1.348-0.066-2.039 0.117-0.348 0.106-0.856 0.266-1.524 0.481-0.078 0.027-0.16 0.054-0.238 0.082-1.629 0.398-3.027 0.613-4.199 0.636l-1.68 0.043zm-1.859-4.203c-0.227 0.047-0.457 0.102-0.703 0.16 1.707-0.211 3.027-0.316 3.961-0.316 1.492 0.023 2.492 0.293 3 0.797 0.027 0.027 0.054 0.055 0.082 0.082l0.117 0.078c0.082 0.133 0.133 0.266 0.16 0.402 0.082-0.082 0.149-0.16 0.199-0.242 0.082-0.183-0.023-0.371-0.316-0.558-0.137-0.106-0.309-0.227-0.524-0.36l-0.558-0.199c-0.043-0.02-0.09-0.031-0.141-0.043-0.047-0.016-0.101-0.039-0.16-0.059-0.117-0.035-0.242-0.07-0.379-0.101-0.445-0.133-0.816-0.219-1.121-0.258l-0.277-0.019h-0.043c-0.078 0.023-0.145 0.039-0.199 0.039-0.321 0.054-0.868 0.144-1.641 0.281l-0.957 0.199c-0.164 0.035-0.328 0.074-0.5 0.117z" inkscape:connector-curvature="0"/>
      <path id="path22" style="fill-rule:evenodd;fill:#4f371f" d="m58.078 13.481c0.027 0.051 0.043 0.106 0.043 0.16 0.051 0.133 0.039 0.266-0.043 0.399 0.137-0.188 0.137-0.375 0-0.559zm-29.637 2.961c0.239-0.109 0.586-0.16 1.039-0.16 1.012 0.531 1.813 0.812 2.399 0.84 0.293 0.023 1.641 0.039 4.043 0.039l7.117 0.039c0.453 0 1.027-0.067 1.723-0.199 0.769-0.133 1.332-0.215 1.679-0.243 0.934-0.05 2.399-0.211 4.399-0.476 0.398-0.055 0.867-0.188 1.398-0.402 0.801-0.293 1.254-0.454 1.364-0.481 1.437-0.426 2.371-0.734 2.796-0.918 0.481-0.133 0.817-0.254 1-0.359l0.282-0.203-0.039-0.118c-0.266-0.027-0.575-0.015-0.922 0.039-0.16 0.028-0.426 0.079-0.797 0.161l-0.563 0.078c0.293-0.16 0.575-0.305 0.84-0.438-0.344 0.16-0.734 0.36-1.16 0.598-1.625 0.562-3.851 0.976-6.68 1.242-1.574 0.16-3.945 0.387-7.121 0.68-0.824 0.105-2.746 0.16-5.758 0.16h-4.48c-0.266 0-0.734-0.027-1.398-0.082-0.59-0.024-1 0.027-1.243 0.16 0.028 0.027 0.055 0.043 0.082 0.043zm-24.761-9.402c0.265 0.187 0.492 0.347 0.679 0.48 0.801 0.559 1.575 1.039 2.321 1.442-0.586-0.614-0.868-1.094-0.84-1.442 0.027-0.426 0.48-0.762 1.359-1h-0.039c0.934-0.695 2.399-1.305 4.399-1.84-0.454-0.32-1.493-0.547-3.118-0.679-1.496-0.106-2.562-0.094-3.203 0.039-0.504 0.105-1.078 0.359-1.718 0.761-0.774 0.504-1.145 0.973-1.122 1.399h0.043l1.239 0.84zm38.359-0.059c0.305 0.035 0.676 0.125 1.121 0.258 0.133 0.031 0.262 0.066 0.379 0.101-0.582-0.199-1.082-0.32-1.5-0.359zm3.402-2.101-0.242 0.039 0.36-0.239c0.16-0.32 0.109-0.679-0.161-1.082-1.863-0.957-3.437-1.597-4.718-1.918-1.735-0.425-3.668-0.48-5.801-0.16-1.227 0.188-3.039 0.508-5.438 0.961-1.121 0.133-4.242 0.277-9.363 0.438-3.918 0.48-4.41 1.75-1.476 3.8l1.199-0.039c-1.254-0.347-1.696-0.761-1.321-1.238 0.321-0.402 0.907-0.668 1.758-0.801 0.668-0.082 1.789-0.109 3.364-0.082 1.464 0.028 2.558-0.027 3.277-0.16 5.309-0.879 10.586-1.184 15.84-0.918 0.136 0.078 0.242 0.184 0.32 0.32 0.106 0.211 0.176 0.332 0.199 0.36l0.524 0.078c0.293 0.613 0.039 1.187-0.762 1.723 0.906-0.082 2.227 0.144 3.961 0.679 1.945 0.586 3.305 0.906 4.078 0.957 0.133 0.082 0.242 0.188 0.32 0.321 0.106 0.214 0.188 0.347 0.243 0.402 0.371-0.027 0.664 0 0.878 0.078-0.027 0.027-0.027 0.16 0 0.402 0 0.161-0.121 0.305-0.359 0.438 0.184-0.024 0.547 0.016 1.078 0.121 0.563 0.082 0.946 0.121 1.16 0.121 0.055 0.051 0.215 0.293 0.481 0.719 0.398-0.028 0.695 0 0.879 0.082 0.293 0.531 0.48 0.933 0.562 1.199 0.266-0.348 0.414-0.707 0.438-1.082l-0.52 0.082c0.266-0.266 0.426-0.496 0.481-0.68-0.133-0.425-0.414-0.839-0.84-1.242-0.719-0.664-1.348-0.984-1.879-0.961-0.375 0-0.973 0.176-1.801 0.524 0.426-0.27 0.641-0.629 0.641-1.082-0.586-0.16-1.309-0.426-2.16-0.801l-2.082-1c-0.399 0.055-1.039 0.16-1.918 0.32-0.774 0.133-1.536 0.172-2.282 0.121 0.481-0.187 0.84-0.453 1.082-0.8zm16.84 7.679c-0.347-0.293-0.801-0.547-1.359-0.758 0.078 0 0.504-0.066 1.277-0.203-0.265-0.211-0.492-0.359-0.679-0.437-0.348 0.133-0.665 0.172-0.961 0.121-0.211-0.32-0.559-0.656-1.039-1-0.215 0.051-0.68 0.398-1.399 1.039-0.535 0.504-1.133 0.625-1.801 0.359v0.239c0.801 0.242 1.801 0.386 3 0.441 1.414 0.027 2.399 0.094 2.961 0.199zm-2.121 2.242 0.36-0.402c0.402 0 0.546-0.105 0.441-0.32-0.109-0.211-0.336-0.332-0.68-0.36-0.32 0-0.519 0.133-0.601 0.403-0.078 0.293 0.082 0.519 0.48 0.679zm-7.601-1.679c-0.133 0.023-0.414 0.023-0.84 0-0.344 0-0.598 0.023-0.758 0.078 0 0.105 0.066 0.254 0.199 0.441 0.852 0.028 1.414 0.039 1.68 0.039 0.695-0.027 1.16-0.148 1.398-0.359h0.364c0.078-0.508-0.336-0.68-1.243-0.52-0.214 0.024-0.48 0.133-0.8 0.321zm-0.399-0.961c0.168-0.121 0.262-0.246 0.281-0.379-0.019 0.109-0.101 0.223-0.242 0.34l-0.039 0.039zm-11.879-0.36c-6.187 0.106-9.922 0.161-11.203 0.161-1.89 0-4 0.066-6.316 0.199-0.11 0-1.043-0.028-2.801-0.082-0.75-0.024-1.359-0.012-1.84 0.043h0.438c0.988 0.586 1.746 0.984 2.281 1.199 0.773 0.238 1.734 0.437 2.879 0.598 1.066 0.16 2.402 0.226 4 0.203 1.734-0.082 3.015-0.121 3.84-0.121 3.043 0.054 5.64-0.028 7.8-0.243 1.735-0.132 3.016-0.226 3.84-0.277 1.52-0.105 2.746-0.281 3.68-0.519 1.254-0.536 2.293-0.817 3.121-0.84 0.348-0.028 0.68-0.11 1-0.242 0.348-0.188 0.613-0.321 0.801-0.399l0.039-0.039c-0.399-0.27-0.961-0.496-1.68-0.684-0.695-0.16-1.172-0.183-1.441-0.078-0.399 0.133-0.973 0.375-1.719 0.719-0.398 0.133-1.078 0.254-2.039 0.359-0.934 0.161-2.84 0.188-5.723 0.082l1.043-0.039zm10.84-1.359 0.32 0.078c0.532 0.055 0.813-0.039 0.84-0.281 0-0.211-0.293-0.387-0.883-0.52-0.586-0.16-0.918-0.078-1 0.243-0.078 0.293 0.161 0.453 0.723 0.48zm-40.043-1.684c-0.316 0.028-0.531 0.067-0.637 0.122-0.175 0.101-0.129 0.261 0.137 0.48-0.285-0.246-0.266-0.418 0.063-0.52l0.437-0.082h0.242c0.133 0.082 0.492 0.243 1.078 0.481 1.227 0.508 1.989 0.789 2.282 0.84 0.586 0.054 1.027 0.082 1.32 0.082h0.039c0.402 0.051 0.922 0.066 1.563 0.039 0.878-0.055 1.343-0.078 1.398-0.078l8.641 0.039c1.464 0.027 2.558 0.039 3.281 0.039 1.332 0.027 2.426 0.015 3.277-0.039 1.414-0.16 2.496-0.254 3.242-0.281 0.957-0.079 1.504-0.133 1.637-0.161 1.176-0.371 2.375-0.64 3.602-0.8 0.988-0.133 1.652-0.36 2-0.68-0.508-0.504-1.508-0.774-3-0.797-0.934 0-2.254 0.105-3.961 0.316 0.246-0.058 0.476-0.113 0.703-0.16-0.199 0.039-0.406 0.078-0.621 0.121-1.52 0.321-2.828 0.496-3.922 0.52-5.332 0.109-8.852 0.226-10.559 0.359-1.175 0.082-2.945 0.094-5.32 0.043h-4.84c-0.558 0.028-1.039 0.051-1.441 0.078-0.239 0-0.453 0.016-0.641 0.039zm34.563 2.043 0.757 0.239c0.321-0.16 0.536-0.293 0.641-0.399 0.16-0.187 0.133-0.426-0.078-0.722-0.856-0.051-1.43-0.067-1.723-0.039-0.718 0.082-1.023 0.292-0.918 0.64 0.375 0.16 0.735 0.227 1.078 0.199l0.243 0.082c-0.133-0.082-0.321-0.121-0.563-0.121-0.293-0.027-0.492-0.066-0.598-0.121l-0.039-0.16c0.747-0.211 1.438-0.117 2.079 0.281l-0.879 0.121zm-7.039-4.222v0.179l0.039 0.122c0.586 0 0.746-0.172 0.48-0.52-0.242-0.375-0.613-0.492-1.121-0.359 0.105 0.054 0.199 0.121 0.281 0.199 0.078-0.055 0.199-0.055 0.36 0 0.214 0.187 0.304 0.375 0.281 0.558h-0.281c-0.028-0.046-0.039-0.109-0.039-0.179zm6.636 1.98c0.16-0.265-0.117-0.574-0.84-0.918 0.215 0.133 0.387 0.254 0.524 0.36 0.293 0.187 0.398 0.375 0.316 0.558zm-11.957-2c-0.054-0.027-0.093-0.051-0.121-0.078 0.426-0.082 0.774 0.051 1.039 0.399 0.242 0.375 0.094 0.519-0.437 0.441l-0.121-0.082v-0.039c-0.082 0.055-0.149 0.105-0.2 0.16 0.239 0.055 0.465 0.055 0.68 0 0.266 0 0.492-0.078 0.68-0.238 0.187-0.188 0.16-0.403-0.082-0.641-0.211-0.242-0.559-0.336-1.039-0.281-0.426 0.055-0.668 0.176-0.719 0.359h0.32zm-15.043 5.403 1.16-0.204c-0.16-0.16-0.453-0.238-0.878-0.238-0.375 0-0.68 0.055-0.918 0.16 0.132 0.133 0.343 0.227 0.636 0.282zm12.203-5.442h0.118c-0.106-0.453-0.637-0.734-1.598-0.84-0.883-0.105-1.481-0.054-1.801 0.16 0.133 0.133 0.332 0.227 0.602 0.282 0.16-0.215 0.586-0.297 1.277-0.242 0.773 0.027 1.242 0.242 1.402 0.64zm-5.8 1.481 0.757-0.082c-0.078-0.372-0.425-0.586-1.039-0.637-0.558-0.027-0.879 0.078-0.961 0.316 0.614 0 1.028 0.137 1.243 0.403zm-14.922 0.16c-0.024-0.321-0.305-0.496-0.84-0.52-0.481-0.027-0.801 0.051-0.957 0.239 0.238 0.292 0.637 0.386 1.199 0.281l0.32 0.121c0.106-0.082 0.2-0.121 0.278-0.121z" inkscape:connector-curvature="0"/>
      <path id="path24" style="fill-rule:evenodd;fill:#47311b" d="m35.039 18.04h1.262c0.898-0.008 2.027-0.051 3.379-0.121 1.945-0.106 3.347-0.161 4.199-0.161 1.789-0.027 3.707-0.277 5.762-0.757 0.425-0.106 1.187-0.321 2.281-0.641l0.957-0.281c0.613-0.184 1.293-0.387 2.043-0.598l1.117-0.359c0.668-0.215 1.199-0.442 1.602-0.68v-0.043c0.078-0.184 0.093-0.344 0.039-0.48l-0.282 0.203c-0.183 0.105-0.519 0.226-1 0.359-0.425 0.184-1.359 0.492-2.796 0.918-0.11 0.027-0.563 0.188-1.364 0.481-0.531 0.214-1 0.347-1.398 0.402-2 0.265-3.465 0.426-4.399 0.476-0.347 0.028-0.906 0.11-1.679 0.243-0.696 0.132-1.27 0.199-1.723 0.199l-7.117-0.039c-2.402 0-3.75-0.016-4.043-0.039-0.586-0.028-1.387-0.309-2.399-0.84-0.453 0-0.8 0.051-1.039 0.16l-0.043 0.039c0.188 0.211 0.575 0.426 1.161 0.641 0.64 0.211 1.054 0.359 1.242 0.437 0.851 0.293 1.734 0.442 2.64 0.442l1.598 0.039zm-34.32-13.758c0.293 0.449 0.574 0.812 0.84 1.078 0.16 0.215 0.281 0.359 0.363 0.441 0.133 0.133 0.293 0.266 0.476 0.399-0.023-0.426 0.348-0.895 1.122-1.399 0.64-0.402 1.214-0.656 1.718-0.761 0.641-0.133 1.707-0.145 3.203-0.039 1.625 0.132 2.664 0.359 3.118 0.679-2 0.535-3.465 1.145-4.399 1.84h0.039c0.613 0.215 1.52 0.215 2.723 0 1.465-0.238 2.426-0.348 2.879-0.32 0.64 0.027 1.734 0.215 3.277 0.558 1.363 0.297 2.402 0.43 3.121 0.403l-0.597-0.442c-2.934-2.05-2.442-3.32 1.476-3.8 5.121-0.161 8.242-0.305 9.363-0.438 2.399-0.453 4.211-0.773 5.438-0.961 2.133-0.32 4.066-0.265 5.801 0.16 1.281 0.321 2.851 0.961 4.718 1.918 0.27 0.403 0.321 0.762 0.161 1.082 0.296-0.215 0.441-0.465 0.441-0.761 0.027-0.344-0.172-0.758-0.602-1.239-0.453 0.028-0.824-0.027-1.117-0.16-0.242-0.105-0.547-0.387-0.922-0.84-0.828-0.054-1.839-0.215-3.039-0.48-1.175-0.293-2.16-0.453-2.961-0.481-1.066-0.05-2.121 0.055-3.16 0.321-0.613 0.16-1.558 0.425-2.84 0.8-1.254 0.239-3.011 0.387-5.281 0.442-3.144 0.051-4.984 0.094-5.519 0.117-0.985 0.055-2.598 0.359-4.84 0.922-2.051 0.48-3.68 0.707-4.879 0.68-0.719-0.028-2.508-0.227-5.36-0.602-2.613-0.184-4.199 0.109-4.761 0.883zm56 6.117c-0.024 0.375-0.172 0.734-0.438 1.082l0.039 0.199c0.668 0.266 1.266 0.145 1.801-0.359 0.719-0.641 1.184-0.988 1.399-1.039 0.48 0.344 0.828 0.68 1.039 1 0.296 0.051 0.613 0.012 0.961-0.121 0.187 0.078 0.414 0.226 0.679 0.437l0.68-0.039c-0.051-0.265-0.211-0.625-0.481-1.078l-0.558-0.762c-0.481-0.027-0.934-0.172-1.36-0.437-1.015-0.535-1.613-0.828-1.8-0.883l-0.282-0.039h-0.437c0.293 1.039-0.121 1.719-1.242 2.039zm-4.879 1.043-0.039 0.039c-0.188 0.078-0.453 0.211-0.801 0.399-0.32 0.132-0.652 0.214-1 0.242-0.828 0.023-1.867 0.304-3.121 0.84-0.934 0.238-2.16 0.414-3.68 0.519-0.824 0.051-2.105 0.145-3.84 0.277-2.16 0.215-4.757 0.297-7.8 0.243-0.825 0-2.106 0.039-3.84 0.121-1.598 0.023-2.934-0.043-4-0.203-1.145-0.161-2.106-0.36-2.879-0.598-0.535-0.215-1.293-0.613-2.281-1.199h-0.438c-0.055 0.023-0.094 0.039-0.121 0.039-0.105 0-0.199 0.011-0.281 0.039-0.16 0.027-0.293 0.066-0.399 0.121l-0.16 0.039c1.973 1.148 3.707 1.852 5.199 2.121 0.852 0.16 2.563 0.238 5.121 0.238 1.868 0.028 4.426-0.039 7.68-0.199 2.852-0.133 5.387-0.293 7.602-0.48 0.957-0.078 2.613-0.348 4.957-0.801 1.066-0.16 1.867-0.277 2.402-0.359 0.957-0.188 1.641-0.426 2.039-0.719l0.039-0.039c0-0.055 0.016-0.149 0.039-0.282-0.05-0.105-0.183-0.242-0.398-0.398zm4.84-1.641c0.187-0.613-0.055-1.242-0.719-1.882-0.883-0.825-1.949-1.239-3.199-1.239l-0.481 0.039-0.48-0.718c-1.547-0.426-2.426-0.696-2.641-0.801-0.508-0.266-0.867-0.602-1.082-1-0.398-0.055-0.812 0-1.238 0.16-0.133 0.055-0.348 0.16-0.641 0.32-0.238 0.106-0.492 0.172-0.758 0.2-0.242 0.347-0.601 0.613-1.082 0.8 0.746 0.051 1.508 0.012 2.282-0.121 0.879-0.16 1.519-0.265 1.918-0.32l2.082 1c0.851 0.375 1.574 0.641 2.16 0.801 0 0.453-0.215 0.812-0.641 1.082 0.828-0.348 1.426-0.524 1.801-0.524 0.531-0.023 1.16 0.297 1.879 0.961 0.426 0.403 0.707 0.817 0.84 1.242zm-11.641-1c-0.027-0.136-0.078-0.269-0.16-0.402l-0.117-0.078c-0.028-0.027-0.055-0.055-0.082-0.082-0.348 0.32-1.012 0.547-2 0.68-1.227 0.16-2.426 0.429-3.602 0.8-0.133 0.028-0.68 0.082-1.637 0.161-0.746 0.027-1.828 0.121-3.242 0.281-0.851 0.051-1.945 0.066-3.277 0.039-0.723 0-1.817-0.012-3.281-0.039l-8.641-0.039c-0.055 0-0.52 0.023-1.398 0.078-0.641 0.027-1.161 0.015-1.563-0.039h-0.039c-0.293 0-0.734-0.028-1.32-0.082-0.293-0.051-1.055-0.332-2.282-0.84-0.586-0.238-0.945-0.399-1.078-0.481h-0.242l-0.437 0.082c-0.329 0.102-0.348 0.274-0.063 0.52l0.461 0.32c0.988 0.535 1.973 0.918 2.961 1.16l1.078-0.039c9.067-0.16 15.988-0.242 20.762-0.242 1.894 0 3.773-0.254 5.64-0.758 0.774-0.16 1.36-0.293 1.758-0.402 0.723-0.16 1.254-0.332 1.602-0.519l0.199-0.079zm0.602 2 0.879-0.121c-0.641-0.398-1.332-0.492-2.079-0.281l0.039 0.16c0.106 0.055 0.305 0.094 0.598 0.121 0.242 0 0.43 0.039 0.563 0.121zm-7.36-4.601h-0.043c0.028 0.027 0.055 0.039 0.082 0.039 0.078 0.082 0.149 0.16 0.2 0.242 0.027 0.027 0.054 0.051 0.082 0.078v0.02c0 0.07 0.011 0.133 0.039 0.179h0.281c0.023-0.183-0.067-0.371-0.281-0.558-0.161-0.055-0.282-0.055-0.36 0zm-5 0.359c0.078 0.106 0.199 0.321 0.36 0.641v0.039l0.121 0.082c0.531 0.078 0.679-0.066 0.437-0.441-0.265-0.348-0.613-0.481-1.039-0.399 0.028 0.027 0.067 0.051 0.121 0.078zm-2.84-0.039c-0.16-0.398-0.629-0.613-1.402-0.64-0.691-0.055-1.117 0.027-1.277 0.242-0.055 0.05-0.082 0.093-0.082 0.117h1.242l1.156 0.242 0.363 0.117v-0.078z" inkscape:connector-curvature="0"/>
      <g id="g26">
        <g id="g28" clip-path="url(#clipPath30)">
          <g id="g34" transform="matrix(.8 0 0 -.3272 .12 9.5666)">
            <g id="g56" mask="url(#mask48)">
              <path id="path64" style="fill-rule:evenodd;fill:url(#radialGradient58)" d="m46 8.641c-2.668-0.988-5.879-1.48-9.641-1.48-3.757 0-6.972 0.492-9.64 1.48-2.664 0.985-4 2.172-4 3.559s1.336 2.558 4 3.519c2.668 0.989 5.883 1.481 9.64 1.481 3.762 0 6.973-0.492 9.641-1.481 2.668-0.961 4-2.132 4-3.519s-1.332-2.574-4-3.559z" inkscape:connector-curvature="0"/>
            </g>
          </g>
        </g>
      </g>
      <path id="path66" style="fill-rule:evenodd;fill:#82ae17" d="m14.281 28.88c0.824-0.665 1.707-0.946 2.641-0.84 1.144 0.265 2.09 0.441 2.84 0.519 0.183-0.133 0.945-0.16 2.277-0.078 0.856 0.051 1.586 0.172 2.199 0.359 0.883 0.321 1.735 0.625 2.563 0.918 1.011 0.348 2.066 0.481 3.16 0.403l1.32-0.199c0.211-0.137 0.399-0.336 0.559-0.602 0.32-0.508 0.332-1.105 0.039-1.801-0.238-0.586-0.492-1.027-0.758-1.32-0.453-0.504-1.082-0.891-1.883-1.16-1.25-0.426-3.41-0.731-6.476-0.918-2.055 0.347-4 1.121-5.84 2.32-1.281 0.852-2.281 1.707-3 2.559l0.277-0.121c0.028-0.024 0.055-0.039 0.082-0.039zm30.117-1c-0.746-0.504-1.293-0.786-1.636-0.84-0.668-0.16-1.387 0.039-2.16 0.601-0.856 0.586-0.961 1.254-0.321 2 0.614 0.746 1.414 0.934 2.399 0.559 2.242-0.824 2.812-1.602 1.718-2.32zm-4 4.039-0.757 0.203c-0.586 0.16-0.879 0.41-0.879 0.758 0 0.265 0.199 0.562 0.597 0.878 0.774 0.188 1.508 0.27 2.2 0.243l0.64-0.082h0.039c0.082 0 0.16-0.012 0.242-0.039l0.282-0.079c0.691-0.187 1.371-0.535 2.039-1.043 0.187-0.16 0.359-0.304 0.519-0.437 0.078-0.055 0.16-0.121 0.239-0.199l0.32-0.242c0.266-0.239 0.496-0.415 0.68-0.52 0.507-0.613 0.722-1.012 0.64-1.199-0.105-0.215-0.586-0.149-1.437 0.199l1.437-0.199-1.121 0.199c-0.906 0.238-1.797 0.602-2.68 1.082-0.906 0.477-1.851 0.652-2.839 0.52-0.051 0-0.106-0.016-0.161-0.043zm-13.796 0.722c0.453-0.375 0.332-0.679-0.364-0.922-0.398-0.16-0.972-0.504-1.718-1.039-0.719-0.453-1.493-0.652-2.321-0.601-0.906 0.027-0.961 0.429-0.16 1.203 0.75 0.664 1.535 1.144 2.359 1.437 1.043 0.321 1.774 0.293 2.204-0.078zm1.878-2.961c-1.066-0.082-2.066-0.32-3-0.718-1.121-0.508-1.535-1.028-1.242-1.563 0.321-0.586 0.895-1 1.723-1.238 0.828-0.215 1.625-0.188 2.398 0.078 1.309 0.426 2.016 1.16 2.121 2.203 0.079 0.453 0.028 0.773-0.16 0.957-0.265 0.266-0.879 0.359-1.84 0.281zm-8.718-1.121c0.613 0.055 1.531 0.188 2.758 0.403-0.293-0.082-0.598-0.149-0.918-0.204-0.696-0.132-1.309-0.199-1.84-0.199z" inkscape:connector-curvature="0"/>
      <path id="path68" style="fill-rule:evenodd;fill:#6c9010" d="m22.52 28.962c-1.227-0.215-2.145-0.348-2.758-0.403-0.75-0.078-1.696-0.25-2.84-0.519-0.934-0.106-1.817 0.175-2.641 0.84 0.239-0.106 0.531-0.2 0.879-0.282 0.961-0.211 1.852-0.144 2.68 0.203 0.027 0 1.121 0.879 3.281 2.641 1.707 1.359 3.481 2.105 5.32 2.238 0.907 0.055 1.719 0.039 2.438-0.039-0.586 0.051-1.238 0.067-1.957 0.039 1.066-0.054 1.906-0.332 2.519-0.84 0.559-0.48 0.637-0.761 0.239-0.839-1.602-0.293-3.121-0.922-4.559-1.879-0.695-0.508-1.562-0.895-2.601-1.16zm17.878 2.957c-0.425-0.051-1.171-0.239-2.238-0.559-0.773-0.238-1.226-0.348-1.359-0.32-0.16 0.054-0.176 0.375-0.039 0.961 0.105 0.371 0.343 0.718 0.718 1.039-0.828-0.481-1.359-0.973-1.601-1.481l-0.16-0.679c0-0.075 0.019-0.161 0.062-0.258-0.066 0.152-0.101 0.293-0.101 0.418 0 0.668 0.586 1.336 1.761 2 1.36 0.746 2.731 1.066 4.118 0.961-0.692 0.027-1.426-0.055-2.2-0.243-0.398-0.316-0.597-0.613-0.597-0.878 0-0.348 0.293-0.598 0.879-0.758l0.757-0.203zm4-4.039c1.094 0.718 0.524 1.496-1.718 2.32-0.985 0.375-1.785 0.187-2.399-0.559-0.64-0.746-0.535-1.414 0.321-2 0.773-0.562 1.492-0.761 2.16-0.601 0.343 0.054 0.89 0.336 1.636 0.84zm1.364 2.48c0.851-0.348 1.332-0.414 1.437-0.199 0.082 0.187-0.133 0.586-0.64 1.199-0.184 0.105-0.414 0.281-0.68 0.52 0.883-0.692 1.629-1.028 2.242-1 0.801 0.027 1.426 0.132 1.879 0.32l0.398 0.242-0.437-1.48c-0.508-1.149-1.215-2.122-2.121-2.922l0.121 0.121c-1.359-0.641-2.762-1.039-4.199-1.199-1.496-0.161-2.774 0.039-3.84 0.597-0.617 0.321-1.27 0.856-1.961 1.602-0.426 0.453-0.586 0.894-0.481 1.32 0.106 0.32 0.387 0.691 0.84 1.117 0.399 0.375 1.145 0.59 2.239 0.641 1.066 0.055 1.867-0.039 2.402-0.277 0.426-0.188 1.254-0.375 2.48-0.563l0.321-0.039zm-19.16 2.281c-0.43 0.371-1.161 0.399-2.204 0.078-0.824-0.293-1.613-0.773-2.359-1.437-0.801-0.774-0.746-1.176 0.16-1.203 0.828-0.051 1.602 0.148 2.321 0.601 0.746 0.535 1.32 0.879 1.718 1.039 0.696 0.243 0.817 0.547 0.364 0.922z" inkscape:connector-curvature="0"/>
      <path id="path70" style="fill-rule:evenodd;fill:#5a7a0c" d="m33.559 27.719c-0.454-2.504-3.239-3.757-8.36-3.757-0.531 0-1.054 0.023-1.558 0.078l-0.481 0.039c-0.16 0.027-0.32 0.054-0.48 0.082h0.082c3.066 0.187 5.226 0.492 6.476 0.918 0.801 0.269 1.43 0.656 1.883 1.16 0.266 0.293 0.52 0.734 0.758 1.32 0.293 0.696 0.281 1.293-0.039 1.801-0.16 0.266-0.348 0.465-0.559 0.602l-1.32 0.199c-1.094 0.078-2.149-0.055-3.16-0.403-0.828-0.293-1.68-0.597-2.563-0.918-0.613-0.187-1.343-0.308-2.199-0.359-1.332-0.082-2.094-0.055-2.277 0.078 0.531 0 1.144 0.067 1.84 0.199 0.32 0.055 0.625 0.122 0.918 0.204 1.039 0.265 1.906 0.652 2.601 1.16 1.438 0.957 2.957 1.586 4.559 1.879 0.398 0.078 0.32 0.359-0.239 0.839-0.613 0.508-1.453 0.786-2.519 0.84 0.719 0.028 1.371 0.012 1.957-0.039l3.883-2.121 0.199-0.398c0.078-0.137 0.16-0.282 0.238-0.442 0-0.054 0.016-0.121 0.039-0.199l0.043-0.039v-0.043c0.16-0.078 0.321-0.211 0.481-0.398 0.453-0.454 0.945-1.2 1.476-2.243-0.05 1.067-0.05 1.789 0 2.161 0.055 0.453 0.203 0.828 0.442 1.121 0-0.125 0.035-0.266 0.101-0.418-0.043 0.097-0.062 0.183-0.062 0.258l0.16 0.679c0.242 0.508 0.773 1 1.601 1.481-0.375-0.321-0.613-0.664-0.718-1.039-0.137-0.586-0.121-0.907 0.039-0.961 0.133-0.028 0.586 0.082 1.359 0.32 1.067 0.32 1.813 0.508 2.238 0.559 0.055 0.027 0.11 0.043 0.161 0.043 0.988 0.132 1.933-0.043 2.839-0.52 0.883-0.48 1.774-0.844 2.68-1.082l1.121-0.199-1.437 0.199-0.321 0.039c-1.226 0.188-2.054 0.375-2.48 0.563-0.535 0.238-1.336 0.332-2.402 0.277-1.094-0.051-1.84-0.266-2.239-0.641-0.453-0.426-0.734-0.797-0.84-1.117-0.105-0.426 0.051-0.867 0.481-1.32 0.691-0.746 1.348-1.281 1.961-1.602 1.066-0.558 2.344-0.758 3.84-0.597 1.437 0.16 2.84 0.558 4.199 1.199l-0.121-0.121c-1.094-0.934-2.602-1.442-4.52-1.52-1.867-0.078-3.535 0.281-5 1.078-0.054 0.028-0.093 0.055-0.121 0.082-0.824 0.481-1.398 1-1.719 1.559-0.187-0.426-0.226-0.879-0.121-1.359 0.215-1.122 0.309-1.879 0.282-2.282 0.238-0.773 0.414-1.652 0.519-2.636 0.078-0.747 0.121-1.403 0.121-1.961l0.239-2.641c0.132-1.785 0.558-3.254 1.281-4.398l-0.723-1c-0.746-0.614-1.773-0.868-3.078-0.762-0.855 0.082-1.547 0.254-2.078 0.519 1.359-0.132 2.305 0.133 2.84 0.801 0.426 0.559 0.636 1.508 0.636 2.84 0 0.215-0.105 1.332-0.32 3.359-0.183 1.789-0.238 3.2-0.156 4.243 0.023 0.48-0.043 1.039-0.203 1.679-0.078 0.371-0.199 0.774-0.36 1.199-0.187 0.454-0.398 0.946-0.64 1.481-0.453 0.934-0.852 1.707-1.199 2.32l-0.04 0.039c0-0.027 0.012-0.066 0.04-0.121v-0.117l0.039-0.242c0.054-0.399 0.066-0.785 0.043-1.16l-0.043-0.321z" inkscape:connector-curvature="0"/>
      <path id="path72" style="fill-rule:evenodd;fill:#92c41b" d="m28.48 29.68c0.961 0.078 1.575-0.015 1.84-0.281 0.188-0.184 0.239-0.504 0.16-0.957-0.105-1.043-0.812-1.777-2.121-2.203-0.773-0.266-1.57-0.293-2.398-0.078-0.828 0.238-1.402 0.652-1.723 1.238-0.293 0.535 0.121 1.055 1.242 1.563 0.934 0.398 1.934 0.636 3 0.718z" inkscape:connector-curvature="0"/>
      <path id="path74" style="fill-rule:evenodd;fill:#739a13" d="m33.199 30.68c0.188-0.187 0.375-0.414 0.563-0.679-0.16 0.187-0.321 0.32-0.481 0.398v0.043l-0.043 0.039c-0.023 0.078-0.039 0.145-0.039 0.199zm0.36-2.961 0.043 0.321c0.023 0.375 0.011 0.761-0.043 1.16l-0.039 0.242v0.117c-0.028 0.055-0.04 0.094-0.04 0.121l0.04-0.039c0.347-0.613 0.746-1.386 1.199-2.32 0.242-0.535 0.453-1.027 0.64-1.481 0.161-0.425 0.282-0.828 0.36-1.199 0.16-0.64 0.226-1.199 0.203-1.679-0.082-1.043-0.027-2.454 0.156-4.243 0.215-2.027 0.32-3.144 0.32-3.359 0-1.332-0.21-2.281-0.636-2.84-0.535-0.668-1.481-0.933-2.84-0.801-0.297 0.133-0.535 0.309-0.723 0.52-0.293 0.293-0.453 0.586-0.48 0.883 0.426 1.519 0.855 3.304 1.281 5.359 0.773 3.785 1.027 6.652 0.762 8.598l-0.203 0.64z" inkscape:connector-curvature="0"/>
    </g>
  </g>
<metadata><rdf:RDF><cc:Work><dc:format>image/svg+xml</dc:format><dc:type rdf:resource="http://purl.org/dc/dcmitype/StillImage"/><cc:license rdf:resource="http://creativecommons.org/licenses/publicdomain/"/><dc:publisher><cc:Agent rdf:about="http://openclipart.org/"><dc:title>Openclipart</dc:title></cc:Agent></dc:publisher></cc:Work><cc:License rdf:about="http://creativecommons.org/licenses/publicdomain/"><cc:permits rdf:resource="http://creativecommons.org/ns#Reproduction"/><cc:permits rdf:resource="http://creativecommons.org/ns#Distribution"/><cc:permits rdf:resource="http://creativecommons.org/ns#DerivativeWorks"/></cc:License></rdf:RDF></metadata></svg>
